<svg aria-hidden="true" style="position: absolute; width: 0; height: 0; overflow: hidden;" version="1.1" xmlns="http://www.w3.org/2000/svg" xmlns:xlink="http://www.w3.org/1999/xlink">
<defs>
<symbol id="logo" viewBox="0 0 32 32">
<path fill="#ffda44" style="fill: var(--color1, #ffda44)" d="M16 32c8.837 0 16-7.163 16-16s-7.163-16-16-16c-8.837 0-16 7.163-16 16s7.163 16 16 16z"></path>
<path fill="#338af3" style="fill: var(--color2, #338af3)" d="M0 16c0-8.836 7.163-16 16-16s16 7.163 16 16z"></path>
</symbol>
<symbol id="log-in" viewBox="0 0 32 32">
<path fill="none" stroke="#e0a39a" style="stroke: var(--color3, #e0a39a)" stroke-linejoin="round" stroke-linecap="round" stroke-miterlimit="4" stroke-width="3.2" d="M20 4h1.6c2.24 0 3.36 0 4.216 0.436 0.753 0.383 1.364 0.995 1.748 1.748 0.436 0.856 0.436 1.976 0.436 4.216v11.2c0 2.24 0 3.36-0.436 4.216-0.384 0.753-0.995 1.364-1.748 1.748-0.856 0.436-1.976 0.436-4.216 0.436h-1.6"></path>
<path fill="none" stroke="#e0a39a" style="stroke: var(--color3, #e0a39a)" stroke-linejoin="round" stroke-linecap="round" stroke-miterlimit="4" stroke-width="3.2" d="M13.333 9.333l6.667 6.667M20 16l-6.667 6.667M20 16h-16"></path>
</symbol>
<symbol id="eye" viewBox="0 0 16 16">
<path d="M8 5a3 3 0 100 6 3 3 0 000-6zM6.5 8a1.5 1.5 0 113 0 1.5 1.5 0 01-3 0z"/>
<path fill="#000000" fill-rule="evenodd" clip-rule="evenodd" d="M8 2C5.422 2 3.43 3.32 2.112 4.65A10.948 10.948 0 00.596 6.564c-.173.28-.31.536-.407.75a3 3 0 00-.122.31C.04 7.705 0 7.846 0 8s.041.296.067.375a3 3 0 00.122.31c.097.215.234.471.407.751.346.56.854 1.246 1.516 1.914C3.43 12.68 5.422 14 8 14s4.57-1.32 5.888-2.65a10.952 10.952 0 001.516-1.914c.173-.28.31-.536.407-.75.048-.107.09-.212.122-.31.026-.08.067-.221.067-.376s-.041-.296-.067-.375a2.978 2.978 0 00-.122-.31 6.777 6.777 0 00-.407-.751 10.952 10.952 0 00-1.516-1.914C12.57 3.32 10.578 2 8 2zM1.556 7.933a2.314 2.314 0 00-.03.067l.03.067c.065.145.17.344.316.58a9.45 9.45 0 001.306 1.647C4.332 11.458 5.964 12.5 8 12.5s3.668-1.042 4.822-2.206a9.45 9.45 0 001.306-1.646A5.336 5.336 0 0014.473 8a5.335 5.335 0 00-.346-.648 9.452 9.452 0 00-1.305-1.646C11.668 4.542 10.036 3.5 8 3.5S4.332 4.542 3.178 5.706a9.45 9.45 0 00-1.306 1.646 5.316 5.316 0 00-.316.58z"/>
</symbol>
<symbol id="arrow-down" viewBox="0 0 32 32">
<path stroke-linejoin="round" stroke-linecap="round" stroke-miterlimit="4" stroke-width="3.2" d="M8 12l8 8 8-8"></path>
</symbol>
<symbol id="star" viewBox="0 0 32 32">
<path fill="#ffc531" style="fill: var(--color4, #ffc531); stroke: var(--color4, #ffc531)" stroke="#ffc531" stroke-linejoin="miter" stroke-linecap="butt" stroke-miterlimit="4" stroke-width="2.4" d="M12.4 9.394l3.6-6.822 3.6 6.822c0.318 0.603 0.899 1.025 1.571 1.141l7.601 1.315-5.376 5.532c-0.475 0.489-0.697 1.171-0.6 1.846l1.098 7.635-6.922-3.404c-0.612-0.301-1.329-0.301-1.941 0l-6.922 3.404 1.098-7.635c0.097-0.675-0.125-1.357-0.6-1.846l-5.376-5.532 7.601-1.315c0.672-0.116 1.252-0.538 1.571-1.141zM29.035 11.579v0zM7.767 27.031c0 0 0 0 0 0h-0z"></path>
</symbol>
<symbol id="book-open" viewBox="0 0 32 32">
<path stroke-linejoin="round" stroke-linecap="round" stroke-miterlimit="4" stroke-width="3" d="M29.333 8.267c0-1.493 0-2.24-0.291-2.811-0.256-0.502-0.664-0.91-1.165-1.165-0.571-0.291-1.317-0.291-2.811-0.291h-0.533c-2.987 0-4.48 0-5.621 0.581-1.004 0.511-1.819 1.327-2.331 2.331-0.581 1.141-0.581 2.634-0.581 5.621v15.467l0.133-0.2c0.926-1.389 1.389-2.084 2.001-2.587 0.542-0.445 1.166-0.779 1.837-0.983 0.758-0.23 1.593-0.23 3.262-0.23h1.833c1.494 0 2.24 0 2.811-0.291 0.502-0.256 0.91-0.664 1.165-1.165 0.291-0.57 0.291-1.317 0.291-2.811v-11.467z"></path>
<path stroke-linejoin="round" stroke-linecap="round" stroke-miterlimit="4" stroke-width="3" d="M2.667 8.267c0-1.493 0-2.24 0.291-2.811 0.256-0.502 0.664-0.91 1.165-1.165 0.57-0.291 1.317-0.291 2.811-0.291h0.533c2.987 0 4.48 0 5.621 0.581 1.004 0.511 1.819 1.327 2.331 2.331 0.581 1.141 0.581 2.634 0.581 5.621v15.467l-0.133-0.2c-0.926-1.389-1.389-2.084-2.001-2.587-0.542-0.445-1.166-0.779-1.837-0.983-0.758-0.23-1.593-0.23-3.262-0.23h-1.833c-1.493 0-2.24 0-2.811-0.291-0.502-0.256-0.91-0.664-1.165-1.165-0.291-0.57-0.291-1.317-0.291-2.811v-11.467z"></path>
</symbol>
<symbol id="heart" viewBox="0 0 32 32">
<path stroke-linejoin="round" stroke-linecap="round" stroke-miterlimit="4" stroke-width="2.4615" d="M27.787 6.147c-0.681-0.681-1.49-1.222-2.379-1.591s-1.844-0.559-2.807-0.559-1.917 0.19-2.807 0.559c-0.89 0.369-1.699 0.909-2.38 1.591l-1.413 1.413-1.413-1.413c-1.376-1.376-3.241-2.148-5.187-2.148s-3.811 0.773-5.187 2.148c-1.376 1.376-2.148 3.241-2.148 5.187s0.773 3.811 2.148 5.187l11.787 11.787 11.787-11.787c0.681-0.681 1.222-1.49 1.591-2.379s0.559-1.844 0.559-2.807-0.19-1.917-0.559-2.807c-0.369-0.89-0.909-1.699-1.591-2.38z"></path>
</symbol>
<symbol id="eye-off" viewBox="0 0 32 32">
<path stroke-linejoin="round" stroke-linecap="round" stroke-miterlimit="4" stroke-width="3.2" d="M23.92 23.92c-2.279 1.737-5.055 2.7-7.92 2.747-9.333 0-14.667-10.667-14.667-10.667 1.659-3.091 3.959-5.791 6.747-7.92M13.2 5.653c0.918-0.215 1.857-0.322 2.8-0.32 9.333 0 14.667 10.667 14.667 10.667-0.809 1.514-1.775 2.94-2.88 4.253M18.827 18.827c-0.366 0.393-0.808 0.708-1.299 0.927s-1.020 0.336-1.557 0.346c-0.537 0.009-1.071-0.089-1.569-0.291s-0.95-0.5-1.33-0.88-0.679-0.832-0.88-1.33c-0.201-0.498-0.3-1.032-0.29-1.569s0.127-1.067 0.346-1.557 0.534-0.932 0.927-1.298"></path>
<path stroke-linejoin="round" stroke-linecap="round" stroke-miterlimit="4" stroke-width="3.2" d="M1.333 1.333l29.333 29.333"></path>
</symbol>
<symbol id="close" viewBox="0 0 32 32">
<path stroke-linejoin="round" stroke-linecap="round" stroke-miterlimit="4" stroke-width="2.5" d="M24 8l-16 16"></path>
<path stroke-linejoin="round" stroke-linecap="round" stroke-miterlimit="4" stroke-width="2.5" d="M8 8l16 16"></path>
</symbol>
<symbol id="log-out" viewBox="0 0 16 16">
<path d="M6.5 1.75A.75.75 0 005.75 1h-2.5A2.25 2.25 0 001 3.25v9.5A2.25 2.25 0 003.25 15h2.5a.75.75 0 000-1.5h-2.5a.75.75 0 01-.75-.75v-9.5a.75.75 0 01.75-.75h2.5a.75.75 0 00.75-.75z"/>
<path d="M9.97 3.72a.75.75 0 011.06 0l3.5 3.5a.75.75 0 010 1.06l-3.5 3.5a.75.75 0 11-1.06-1.06l2.22-2.22H6A.75.75 0 016 7h6.19L9.97 4.78a.75.75 0 010-1.06z"/>
</symbol>
</defs>
</svg>
